# xmcd
#
# Track frame offsets:
#	150
#	24720
#	40450
#	60849
#	81709
#	95202
#	121579
#	140593
#	157876
#	182342
#	196536
#	214501
#	240522
#	261409
#
# Disc length: 3806 seconds
#
# Revision: 2
# Processed by: cddbd v1.5.1PL2 Copyright (c) Steve Scherf et al.
# Submitted via: EasyCDDAExtractor 8.0.2.1
#
DISCID=b80edc0e
DTITLE=Dio - Icehall Helsinki 29-11-99
DYEAR=1999
DGENRE=Hard Rock
TTITLE0=Evilution
TTITLE1=Straight Through The Heart
TTITLE2=Don't Talk To Strangers
TTITLE3=Holy Diver
TTITLE4=Drum Solo
TTITLE5=Heaven and Hell
TTITLE6=Rock and Roll Children
TTITLE7=I Speed At Night
TTITLE8=Stargazer
TTITLE9=Guitar Solo
TTITLE10=Catch The Rainbow
TTITLE11=The Last In Line
TTITLE12=Rainbow In The Dark
TTITLE13=Man On The Silver Mountain - Long live Rock and Roll
EXTD=
EXTT0=
EXTT1=
EXTT2=
EXTT3=
EXTT4=
EXTT5=
EXTT6=
EXTT7=
EXTT8=
EXTT9=
EXTT10=
EXTT11=
EXTT12=
EXTT13=
PLAYORDER=
